<?xml version="1.0" standalone="no"?><!DOCTYPE svg PUBLIC "-//W3C//DTD SVG 1.1//EN" "http://www.w3.org/Graphics/SVG/1.1/DTD/svg11.dtd"><svg t="1783352492387" class="icon" viewBox="0 0 1024 1024" version="1.1" xmlns="http://www.w3.org/2000/svg" p-id="2030" xmlns:xlink="http://www.w3.org/1999/xlink" width="200" height="200"><path d="M630.5 461.5l85.9 49.2c4.4 2.5 5.9 8.2 3.4 12.6-2.5 4.4-8.2 5.9-12.6 3.4l-85.9-49.2c-4.4-2.5-5.9-8.2-3.4-12.6 2.5-4.4 8.1-5.9 12.6-3.4zM727.3 452.9l48.9 27.2c4.4 2.5 5.9 8.2 3.4 12.6-2.5 4.4-8.2 5.9-12.6 3.4l-48.9-27.2c-4.4-2.5-5.9-8.2-3.4-12.6 2.5-4.4 8.1-5.9 12.6-3.4zM657.3 532.2l67 38.4c4.4 2.5 5.9 8.2 3.4 12.6-2.5 4.4-8.2 5.9-12.6 3.4l-67-38.4c-4.4-2.5-5.9-8.2-3.4-12.6 2.5-4.4 8.1-5.9 12.6-3.4z" fill="" p-id="2031"></path><path d="M241.486732 447.622469a152.1 187.9 6.062 1 0 39.6862-373.698602 152.1 187.9 6.062 1 0-39.6862 373.698602Z" fill="#FFFFFF" p-id="2032"></path><path d="M254.8 456.9c-4.7 0-9.5-0.3-14.2-0.8-43-4.6-81.2-29.4-107.4-69.9-25.9-40-37.1-90.5-31.6-142.4 5.5-51.8 27.1-98.9 60.8-132.6C196.5 77.1 239 60.9 282 65.4c43 4.6 81.2 29.4 107.4 69.9 25.9 40 37.1 90.5 31.6 142.4-5.5 51.8-27.1 98.9-60.8 132.6-30.3 30.3-67.3 46.6-105.4 46.6zM268 81.8c-73.8 0-139.5 70.6-149.4 163.8-10.4 98.3 45.1 185.1 123.8 193.5 78.7 8.4 151.2-64.8 161.7-163.1S358.9 90.8 280.2 82.5c-4.1-0.5-8.2-0.7-12.2-0.7z" fill="" p-id="2033"></path><path d="M348 137.4c11.6 35.6 12.5 77.7-0.1 119.6-27.2 90.7-107.4 147.3-181.2 129.3 11.5 10.2 25 17.9 40.1 22.5 67.9 20.4 143.3-31.1 168.5-115 17.9-59.6 5.7-119.4-27.3-156.4z" fill="#E0E0E0" p-id="2034"></path><path d="M166.633 122.876l0.908-8.551 216.182 22.957-0.908 8.552zM131.719 172.303l0.908-8.551 281.813 29.927-0.908 8.552zM115.442 223.658l0.908-8.551 302.496 32.123-0.908 8.552zM109.826 276.211l0.909-8.552 302.496 32.124-0.908 8.552zM115.54 329.943l0.909-8.552 273.858 29.082-0.908 8.552zM139.756 385.662l0.908-8.551 214.095 22.735-0.908 8.552z" fill="" p-id="2035"></path><path d="M362.829 389.424l24.776-233.087 8.552 0.909-24.777 233.087zM318.95 428.203L352.858 109.2l8.552 0.909L327.5 429.112zM276.597 451.353l39.648-373 8.552 0.91-39.648 372.999zM212.66 637.496l20.264-190.826 17.004 1.806-20.264 190.825zM161.276 411.454L195.185 92.45l8.552 0.91-33.909 319.003zM197.762 442.98l39.648-373 8.552 0.91-39.648 372.999z" fill="" p-id="2036"></path><path d="M126.452 364.29l24.363-229.21 8.552 0.91-24.364 229.208z" fill="" p-id="2037"></path><path d="M236.287 451.715l40.346-379.562 8.552 0.909-40.346 379.562z" fill="" p-id="2038"></path><path d="M221.4 632.4l18.7 66.6-50.9-5.4z" fill="#FFFFFF" p-id="2039"></path><path d="M251.7 708.9l-76-8.1 48.1-91.5 27.9 99.6z m-49.1-22.5l25.8 2.7-9.5-33.8-16.3 31.1z" fill="" p-id="2040"></path><path d="M187.3 935.4l43 4.6c6.6 0.7 12.5-4.1 13.2-10.7l20.6-193.7c0.7-6.6-4.1-12.5-10.7-13.2l-43-4.6c-6.6-0.7-12.5 4.1-13.2 10.7l-20.6 193.7c-0.6 6.6 4.2 12.5 10.7 13.2z" fill="#78CFFF" p-id="2041"></path><path d="M202 931.7c5.6 0.5 17.6 2 18.2-3.7l18.6-197.4c0.5-5.6-3.6-10.7-9.3-11.2l-8.1-0.8L202 931.7z" fill="#48B5E5" p-id="2042"></path><path d="M215.8 925c-0.7 0-1.3 0-2-0.1l-46.5-4.9c-10.3-1.1-17.8-10.4-16.7-20.7l20.9-197.1c0.5-5 3-9.5 6.9-12.7 3.9-3.2 8.8-4.6 13.8-4.1l46.5 4.9c10.3 1.1 17.8 10.4 16.7 20.7l-20.9 197.1c-0.5 5-3 9.5-6.9 12.7-3.3 2.7-7.5 4.2-11.8 4.2z m-46.6-22.1l46.5 4.9c0.6 0.1 1-0.2 1.2-0.4 0.3-0.2 0.6-0.6 0.6-1.1l20.9-197.1c0.1-0.9-0.6-1.8-1.5-1.9l-46.5-4.9c-0.6-0.1-1 0.2-1.2 0.4-0.3 0.2-0.6 0.6-0.6 1.1L167.7 901c-0.1 1 0.6 1.8 1.5 1.9z" fill="" p-id="2043"></path><path d="M402.264152 502.254237a152.1 187.9 27.272 1 0 172.197287-334.026547 152.1 187.9 27.272 1 0-172.197287 334.026547Z" fill="#FFFFFF" p-id="2044"></path><path d="M461 524.9c-22 0-43.2-5-62.6-15-38.5-19.8-65-56.8-74.8-104.1-9.7-46.6-1.8-97.8 22-144.2 23.9-46.3 61.1-82.4 104.6-101.6 44.2-19.4 89.7-19.2 128.2 0.6 38.5 19.8 65 56.8 74.8 104.1 9.7 46.6 1.8 97.8-22 144.2-23.9 46.3-61.1 82.4-104.6 101.6-21.9 9.6-44.1 14.4-65.6 14.4zM360.8 269.5c-22.1 42.9-29.4 90-20.5 132.8 8.7 42.1 32.2 74.9 65.9 92.3 33.8 17.4 74.1 17.5 113.4 0.1 40-17.6 74.2-50.9 96.3-93.7 45.3-87.9 24.9-188.9-45.4-225.2-70.3-36.2-164.4 5.8-209.7 93.7z" fill="" p-id="2045"></path><path d="M623.7 259.5c-3.3 37.3-19 76.3-47 109.9-60.6 72.8-156.6 93.3-217.4 47.8 6.6 13.9 16 26.3 28.1 36.4 54.5 45.4 144 27.7 200.1-39.6 39.7-47.8 51.9-107.6 36.2-154.5z" fill="#E0E0E0" p-id="2046"></path><path d="M449.963 172.464l3.94-7.644 193.225 99.613-3.94 7.644zM399.568 205.928l3.94-7.644 251.887 129.854-3.94 7.643zM365.816 247.925l3.94-7.644L640.13 379.666l-3.94 7.643zM341.56 294.844l3.94-7.644 270.373 139.385-3.94 7.644zM327.43 346.995l3.941-7.643L576.147 465.54l-3.94 7.644zM329.928 407.708l3.94-7.643 191.36 98.65-3.941 7.644z" fill="" p-id="2047"></path><path d="M536.475 491.971l107.402-208.335 7.644 3.94-107.403 208.336zM481.573 512.13l146.99-285.126 7.644 3.94-146.99 285.127zM433.696 518.452l171.871-333.389 7.644 3.941L441.34 522.393zM306.72 668.85l87.929-170.561 15.198 7.835-87.928 170.56zM340.628 439.492l146.99-285.127 7.644 3.94-146.99 285.128zM363.29 482.112l171.872-333.39 7.643 3.941-171.87 333.39z" fill="" p-id="2048"></path><path d="M325.26 383.032l105.615-204.868 7.643 3.94-105.615 204.869z" fill="" p-id="2049"></path><path d="M396.017 504.273l174.895-339.255 7.644 3.94L403.66 508.215z" fill="" p-id="2050"></path><path d="M316.8 667.2l-6.8 68.9-45.5-23.4z" fill="#FFFFFF" p-id="2051"></path><path d="M317.3 749.5l-67.9-35 78-67.9-10.1 102.9z m-37.6-38.7l23.1 11.9 3.4-34.9-26.5 23z" fill="" p-id="2052"></path><path d="M170.3 916.3l38.5 19.8c5.9 3 13.1 0.7 16.2-5.2l89.3-173.1c3-5.9 0.7-13.1-5.2-16.2l-38.5-19.8c-5.9-3-13.1-0.7-16.2 5.2l-89.3 173.1c-3 5.9-0.7 13.1 5.2 16.2z" fill="#FFFFFF" p-id="2053"></path><path d="M176.9 938.2l38.5 19.8c5.9 3 13.1 0.7 16.2-5.2l89.3-173.1c3-5.9 0.7-13.1-5.2-16.2l-38.5-19.8c-5.9-3-13.1-0.7-16.2 5.2L171.8 922c-3.1 5.9-0.7 13.1 5.1 16.2z" fill="#78CFFF" p-id="2054"></path><path d="M198.6 929.3c5-1.7 15.6 4.1 18.2-0.9l87.6-158.9c2.6-5 0.6-11.3-4.4-13.8l-10-5.5-91.4 179.1z" fill="#48B5E5" p-id="2055"></path><path d="M212.4 939.3c-3 0-5.9-0.7-8.6-2.1l-41.5-21.4c-9.2-4.8-12.9-16.1-8.1-25.4L245 714.2c2.3-4.5 6.2-7.8 11-9.3 4.8-1.5 9.9-1.1 14.4 1.2l41.5 21.4c9.2 4.8 12.9 16.1 8.1 25.4l-90.8 176.2c-2.3 4.5-6.2 7.8-11 9.3-1.9 0.6-3.8 0.9-5.8 0.9z m-42.2-38.7l41.5 21.4c0.5 0.3 1 0.2 1.3 0.1 0.3-0.1 0.7-0.3 1-0.8L304.9 745c0.3-0.5 0.2-1 0.1-1.3-0.1-0.3-0.3-0.7-0.8-1l-41.5-21.4c-0.5-0.3-1-0.2-1.3-0.1-0.3 0.1-0.7 0.3-1 0.8l-90.8 176.2c-0.6 0.9-0.2 1.9 0.6 2.4z" fill="" p-id="2056"></path><path d="M919.6 612.6l-85.9-2.1-15-45.4 68-52.2-4.9 27.9 16.1 7.7-8.1 18.3 17.2 11-8.3 17.5z" fill="#FFFFFF" p-id="2057"></path><path d="M919.5 616.9l-85.9-2c-1.8 0-3.4-1.2-4-2.9l-15-45.5c-0.6-1.7 0-3.6 1.5-4.7l68-52.1c1.4-1.1 3.3-1.2 4.8-0.3 1.5 0.9 2.3 2.7 2 4.4l-4.3 24.7 13.2 6.3c2.1 1 3 3.5 2.1 5.6l-6.6 15 14.1 9c1.8 1.2 2.5 3.5 1.6 5.4l-6.9 14.5 18.3 15.2c1.4 1.2 1.9 3.1 1.3 4.8-0.8 1.5-2.4 2.6-4.2 2.6z m-82.7-10.6l70.5 1.7-11.4-9.4c-1.5-1.2-2-3.4-1.1-5.1l6.7-14.1-14-8.9c-1.8-1.1-2.5-3.4-1.6-5.3l6.4-14.5-12.4-5.9c-1.7-0.8-2.7-2.7-2.4-4.6l3-17-56.9 43.6 13.2 39.5z" fill="" p-id="2058"></path><path d="M822.1 580.1c-1.4 0-2.8-0.8-3.6-2.1-1.2-2-0.6-4.7 1.4-5.9l59.2-35.9c2-1.2 4.7-0.6 5.9 1.4 1.2 2 0.6 4.7-1.4 5.9l-59.2 35.9c-0.7 0.5-1.5 0.7-2.3 0.7zM829.1 601.2c-2.2-0.1-4.1-1.8-4.2-4.1-0.1-2.4 1.8-4.4 4.1-4.4l69.2-2.6c2.4-0.1 4.4 1.8 4.4 4.1 0.1 2.4-1.8 4.4-4.1 4.4l-69.2 2.6h-0.2zM825.6 590.6c-1.8 0-3.4-1.2-4-3-0.7-2.3 0.5-4.7 2.8-5.4l63.8-20.5c2.3-0.7 4.7 0.5 5.4 2.8 0.7 2.3-0.5 4.7-2.8 5.4L827 590.4c-0.4 0.2-0.9 0.3-1.4 0.2z" fill="" p-id="2059"></path><path d="M795.3 584.1c-11.1 3.7-17.3 15.8-13.6 26.9l0.9 2.8c3.7 11.1 15.8 17.3 26.9 13.6l17.1-5.6-14.3-43.3-17 5.6z" fill="#78CFFF" p-id="2060"></path><path d="M819.9 604.2c-9 4.9-21.4 2.6-26.9-13.6l-0.9-2.8c-0.9-2.6-1.2-5.2-1-7.8-3.2 5.2-4.2 11.7-2.2 18l0.9 2.8c3.7 11.1 15.8 17.3 26.9 13.6l6-2-2.8-8.2z" fill="#48B5E5" p-id="2061"></path><path d="M809 620.8c-3.8-0.1-7.5-1-10.9-2.8-6.1-3.1-10.7-8.4-12.8-14.8l-0.9-2.8c-4.4-13.4 2.9-27.9 16.3-32.4l21.1-7 17 51.4-21.1 7c-2.9 1-5.8 1.4-8.7 1.4z m-5.7-44.6c-8.9 2.9-13.8 12.6-10.9 21.5l0.9 2.8c1.4 4.3 4.5 7.8 8.5 9.9 4.1 2.1 8.7 2.4 13 1l13-4.3-11.6-35.2-12.9 4.3z" fill="" p-id="2062"></path></svg>